<svg width="851" height="786" xmlns="http://www.w3.org/2000/svg" xmlns:xlink="http://www.w3.org/1999/xlink" xml:space="preserve" overflow="hidden"><g transform="translate(-1708 -582)"><path d="M2550.5 975 2382.22 1030.32 2382.22 919.678ZM2428.33 702.401 2351.68 851.536 2267.05 773.3ZM2133.5 589.5 2193.34 745.065 2073.66 745.065ZM1838.63 702.401 1999.95 773.3 1915.32 851.536ZM1716.5 975 1884.78 919.678 1884.78 1030.32ZM1838.63 1247.56 1915.32 1098.46 1999.95 1176.7ZM2133.5 1360.5 2073.66 1204.94 2193.34 1204.94ZM2428.33 1247.56 2267.05 1176.7 2351.68 1098.46ZM1925 975C1925 868.547 2018.35 782.25 2133.5 782.25 2248.65 782.25 2342 868.547 2342 975 2342 1081.45 2248.65 1167.75 2133.5 1167.75 2018.35 1167.75 1925 1081.45 1925 975Z" stroke="#FFC000" stroke-width="4.58333" stroke-miterlimit="8" fill="#FFD966" fill-rule="evenodd"/></g></svg>